<svg width="40" height="43" viewBox="0 0 40 43" fill="none" xmlns="http://www.w3.org/2000/svg">
<g clip-path="url(#clip0_443_10786)">
<path d="M25.1389 28.5519C24.8006 28.3901 24.4554 28.2432 24.1042 28.1118C24.3663 27.2841 24.336 26.5101 24.0706 25.6877C29.0176 22.7725 29.7788 18.5491 24.2957 14.8841C25.9324 13.8225 28.9336 11.4058 28.1778 8.36827C28.8009 8.20867 29.4055 7.98416 29.9817 7.69841C29.9011 9.32367 30.399 10.738 31.4236 11.86C30.8679 12.9612 29.713 13.8353 27.817 14.5857C27.7159 14.6257 27.6261 14.6895 27.5551 14.7718C27.4841 14.8541 27.4342 14.9524 27.4096 15.0582C27.3849 15.1641 27.3863 15.2743 27.4136 15.3795C27.4409 15.4846 27.4934 15.5816 27.5664 15.6621C28.4465 16.6316 29.5444 18.2132 29.9233 20.2933C28.9296 21.5288 28.5648 23.0795 28.8853 24.909C27.0148 25.4371 25.9458 26.7902 25.1389 28.5519ZM31.8126 18.7191C31.5412 18.8709 31.2932 19.0369 31.0581 19.2089C30.6946 17.8893 30.0543 16.6229 29.1614 15.4726C30.2814 14.9526 31.5096 14.184 32.3071 12.9968C31.3678 14.8451 31.2771 16.7492 31.8126 18.7191ZM16.1244 16.8284C14.3097 16.7727 12.9949 17.5084 12.1839 18.8897C11.072 18.1675 9.9157 18.152 8.78226 18.8461C8.34554 18.4429 7.85306 18.0526 7.29071 17.6797C7.40896 17.4331 7.58767 16.9789 7.70391 16.5886C11.1573 18.0768 13.4665 16.4831 13.5888 13.5968C13.6479 12.2107 14.17 9.78725 16.9683 9.04014C18.3497 9.12076 19.8741 8.69412 21.5733 7.73268C22.2916 8.0318 23.0355 8.26522 23.7958 8.43008C23.8241 9.86049 20.54 11.0685 19.1647 11.4098C16.3824 11.9903 15.0636 13.7808 16.1244 16.8284ZM14.2815 8.12841C14.4858 8.26682 14.6967 8.37902 14.909 8.48652C11.0122 10.9899 13.3765 15.0446 10.7985 15.7414C9.79409 16.0135 8.56793 15.525 7.96325 15.2334C8.06201 13.8359 7.67098 12.4378 6.78748 11.0497C7.79394 10.4806 8.38787 9.62265 8.56927 8.48584C9.94056 11.4044 8.23536 13.758 9.60866 13.9347C9.69628 13.946 9.78528 13.9399 9.87055 13.9168C9.95582 13.8936 10.0357 13.8539 10.1056 13.7999C10.1755 13.7458 10.234 13.6785 10.2779 13.6018C10.3217 13.5251 10.35 13.4405 10.3611 13.3529C10.6386 11.1787 10.4102 9.60921 10.0124 8.49189C11.4368 8.87351 12.925 8.67464 14.2815 8.12841ZM17.2196 29.3474C15.1099 29.2815 11.8413 28.0238 10.2543 26.8742C11.3777 24.4367 11.4099 22.0287 9.72892 19.8673C10.425 19.5394 11.074 19.6725 11.7848 20.2738C12.233 23.6802 15.1166 26.0532 16.0861 26.0532C16.7936 26.0532 17.0187 25.0951 16.3865 24.78C13.6768 23.4282 13.1917 20.7367 13.1111 20.0554C15.1066 15.3833 22.3963 20.8348 23.0024 20.8348C23.681 20.8348 23.9316 19.9399 23.3511 19.5885C21.1608 18.2629 19.295 17.4358 17.704 17.0623C17.4991 16.7344 16.7795 15.2509 17.2256 14.1531C17.5105 13.4523 18.2556 12.9726 19.463 12.7193C21.5686 12.202 24.9709 10.8186 25.1382 8.61955C25.7187 8.66658 26.2905 8.66523 26.8515 8.60745C27.6651 11.6692 22.7484 14.2424 22.696 14.2693C22.5893 14.3245 22.4993 14.4073 22.4354 14.5091C22.3715 14.6108 22.3359 14.7278 22.3325 14.848C22.3291 14.9681 22.3579 15.0869 22.4159 15.1922C22.4739 15.2974 22.559 15.3852 22.6624 15.4464C28.0602 18.6264 27.9043 21.7889 23.4888 24.4676C22.5919 23.1104 20.9525 21.8775 18.5915 20.7911C17.784 20.4182 17.2216 21.6404 18.0299 22.0119C20.4264 23.1145 23.6292 25.2073 22.8243 27.7168C20.6575 27.2081 18.5566 27.579 17.2196 29.3474ZM38.6677 17.1825C39.533 20.5802 38.7584 23.0009 36.3013 24.5811C36.082 24.7226 35.9068 24.9228 35.7958 25.1589C35.6847 25.3951 35.6422 25.6577 35.6731 25.9168C36.1031 29.432 34.5249 31.4772 30.706 32.352C30.3029 32.444 29.9535 32.7242 29.7735 33.1004C28.421 35.9136 26.2193 36.4887 22.8438 34.9091C22.7327 34.8576 22.6097 34.8374 22.4879 34.8506C22.3662 34.8638 22.2504 34.91 22.1529 34.9841C22.0555 35.0583 21.9801 35.1576 21.9349 35.2714C21.8897 35.3852 21.8764 35.5092 21.8965 35.63C22.4252 38.7549 21.8629 41.093 20.2114 42.7465C19.9259 42.9964 19.7888 43.0018 19.7599 42.9998C19.7163 42.9964 19.6544 42.9541 19.5879 42.8849C14.9608 32.4803 17.5931 25.9659 25.153 30.0696C26.6143 30.8577 26.0883 26.674 29.7889 26.0861C31.4767 25.8194 27.9769 22.0233 32.9077 19.6651C34.142 19.0732 31.6198 16.9978 33.6132 13.4019C33.7879 13.0895 34.3852 12.3713 33.6784 11.9601C31.6943 10.8098 30.9418 8.94339 31.5015 6.56363C31.5327 6.43162 31.5232 6.29325 31.4743 6.16673C31.4254 6.04022 31.3393 5.93147 31.2274 5.8548C30.7275 5.51484 30.45 5.92737 29.5612 6.39902C27.0329 7.73604 24.3562 7.48946 21.8011 6.36543C21.7031 6.32255 21.5963 6.30361 21.4895 6.31015C21.3827 6.31669 21.279 6.34854 21.187 6.40305C16.3146 9.30082 14.9453 6.36408 14.0947 6.74705C12.9727 7.25364 11.803 7.50223 10.6084 7.25095C8.63243 6.83305 8.28104 5.57329 7.51511 6.0174C6.57853 6.56699 8.44498 9.09859 5.54855 10.1393C5.19918 10.265 5.09235 10.6486 5.13199 10.5814C5.12527 10.701 5.04734 10.9247 5.23882 11.1794C8.63445 15.6775 4.69259 17.6716 6.05648 18.494C9.51527 20.5788 10.7078 23.1729 8.78158 26.8225C8.60555 27.1564 8.72716 27.02 9.27474 32.2492C9.31505 32.6053 9.21427 32.9412 8.99255 33.1965C8.87932 33.3238 8.7406 33.4259 8.58539 33.4962C8.43018 33.5664 8.26194 33.6033 8.09158 33.6043C7.5346 33.65 7.04346 33.2362 6.91446 32.6993C6.60876 31.4228 6.73037 30.2168 7.28466 29.0114C7.6992 28.1091 7.08041 27.0832 6.08806 27.0456C4.4057 26.9804 3.24404 26.537 2.63533 25.7253C1.98428 24.8586 1.88955 23.4806 2.35314 21.6296C2.40544 21.4184 2.40733 21.1979 2.35866 20.9858C2.30999 20.7737 2.21212 20.5761 2.07297 20.4088C-1.10027 16.6175 0.0278015 14.6906 1.15184 13.5705C1.59124 13.1338 1.6638 12.4425 1.32652 11.8902C-1.69017 6.93987 2.75223 6.12019 3.12176 4.79863C4.06775 1.38217 6.04641 0.458352 9.13633 1.43592C9.59052 1.5797 10.083 1.47959 10.4505 1.17121C12.0872 -0.205454 13.7037 -0.19672 15.5366 1.19472C16.9582 2.28113 18.8079 -0.469499 22.092 1.27266C22.3312 1.4001 22.6021 1.45561 22.8721 1.43248C23.1422 1.40936 23.3997 1.30858 23.6138 1.14231C25.6133 -0.416422 27.6893 -0.380812 29.9582 1.25452C30.1321 1.37953 30.3325 1.46259 30.5439 1.49721C30.7552 1.53183 30.9717 1.51706 31.1763 1.45406C33.8094 0.630351 35.6772 0.674694 36.728 1.58575C37.8782 2.58146 38.198 4.71599 37.678 7.92752C37.6232 8.2758 37.7032 8.63189 37.9017 8.92323C39.66 11.4837 39.9335 13.8138 38.7604 16.2567C38.6227 16.5456 38.5897 16.8735 38.6677 17.1825Z" fill="#FAF2E5"/>
<path d="M22.4885 34.8503C22.6103 34.8371 22.7333 34.8573 22.8444 34.9088L25.1536 30.0694C17.5937 25.9656 14.9613 32.48 19.5885 42.8846C19.655 42.9538 19.7168 42.9961 19.7605 42.9995C19.7894 43.0015 19.9265 42.9961 20.212 42.7462C21.8635 41.0927 22.4258 38.7546 21.897 35.6297C21.877 35.5089 21.8903 35.385 21.9355 35.2711C21.9807 35.1573 22.0561 35.058 22.1535 34.9838C22.2509 34.9097 22.3668 34.8635 22.4885 34.8503Z" fill="#FFAA2B"/>
</g>
<defs>
<clipPath id="clip0_443_10786">
<rect width="39.4713" height="43" fill="white"/>
</clipPath>
</defs>
</svg>
