<svg width="385" height="513" viewBox="0 0 385 513" fill="none" xmlns="http://www.w3.org/2000/svg">
<path d="M275.933 239.08L259.933 225.812V264.22L275.933 247.4V239.08Z" fill="white"/>
<path d="M383.931 238.453C383.679 235.212 382.766 232.057 381.25 229.182C379.733 226.307 377.645 223.772 375.112 221.734L249.286 119.721C245.498 123.632 241.324 127.15 236.827 130.22L365.034 234.164C365.878 234.848 366.575 235.696 367.082 236.656C367.588 237.617 367.895 238.671 367.983 239.753C368.072 240.836 367.939 241.925 367.595 242.955C367.25 243.985 366.7 244.935 365.978 245.746L301.564 318.168C298.63 321.454 294.558 323.505 290.171 323.906C285.784 324.307 281.408 323.028 277.927 320.328C275.95 318.79 274.317 316.855 273.134 314.648C271.95 312.44 271.242 310.009 271.056 307.511C270.869 305.014 271.208 302.505 272.05 300.146C272.893 297.787 274.22 295.631 275.946 293.816L315.337 252.41C316.85 250.82 318.02 248.935 318.774 246.874C319.528 244.812 319.85 242.618 319.72 240.427C319.591 238.236 319.012 236.094 318.021 234.136C317.029 232.178 315.646 230.444 313.956 229.043L257.524 182.242C256.716 181.571 255.783 181.066 254.78 180.755C253.776 180.445 252.721 180.335 251.675 180.432C250.629 180.53 249.612 180.832 248.683 181.322C247.754 181.813 246.93 182.481 246.259 183.29C245.588 184.098 245.083 185.031 244.773 186.035C244.463 187.039 244.353 188.094 244.451 189.14C244.548 190.186 244.851 191.203 245.342 192.132C245.832 193.061 246.501 193.884 247.31 194.555L303.741 241.383L264.353 282.785C261.085 286.219 258.574 290.3 256.98 294.764C255.386 299.227 254.745 303.976 255.098 308.703C255.451 313.429 256.791 318.03 259.03 322.207C261.27 326.385 264.36 330.047 268.101 332.957C274.791 338.143 283.2 340.597 291.629 339.826C300.059 339.055 307.882 335.115 313.521 328.801L377.935 256.379C380.104 253.958 381.755 251.119 382.786 248.036C383.817 244.953 384.206 241.692 383.931 238.453ZM95.4502 339.957C102.854 339.969 110.049 337.505 115.892 332.957C119.629 330.041 122.714 326.375 124.95 322.196C127.186 318.016 128.522 313.415 128.874 308.688C129.225 303.961 128.584 299.213 126.991 294.748C125.398 290.284 122.889 286.202 119.624 282.766L80.2531 241.356L136.685 194.555C137.496 193.885 138.166 193.061 138.659 192.132C139.151 191.202 139.455 190.185 139.553 189.138C139.652 188.091 139.543 187.034 139.233 186.029C138.923 185.024 138.417 184.09 137.746 183.281C137.074 182.471 136.25 181.802 135.319 181.312C134.389 180.822 133.371 180.519 132.323 180.423C131.276 180.327 130.22 180.438 129.215 180.75C128.211 181.062 127.278 181.569 126.47 182.242L70.0401 229.039C68.3511 230.442 66.9684 232.177 65.9775 234.137C64.9866 236.096 64.4087 238.238 64.2796 240.43C64.1505 242.622 64.473 244.817 65.227 246.879C65.981 248.941 67.1506 250.826 68.6631 252.418L108.03 293.797C109.755 295.614 111.081 297.772 111.922 300.132C112.764 302.491 113.103 305.001 112.918 307.499C112.733 309.998 112.028 312.43 110.848 314.64C109.668 316.85 108.039 318.789 106.065 320.332C102.578 323.028 98.1992 324.301 93.8104 323.896C89.4216 323.491 85.3495 321.437 82.4151 318.148L18.0283 245.758C17.3073 244.945 16.758 243.995 16.4135 242.965C16.0689 241.935 15.9361 240.845 16.0231 239.762C16.1101 238.679 16.4151 237.625 16.9198 236.663C17.4245 235.701 18.1185 234.851 18.96 234.164L147.167 130.22C142.67 127.15 138.496 123.632 134.708 119.721L8.88383 221.734C6.35318 223.771 4.26631 226.305 2.75173 229.179C1.23715 232.053 0.326928 235.206 0.0771079 238.445C-0.182404 241.686 0.214708 244.946 1.24467 248.029C2.27464 251.113 3.91627 253.957 6.07126 256.391L70.46 328.781C73.5982 332.305 77.4483 335.124 81.7561 337.05C86.0639 338.977 90.7313 339.968 95.4502 339.957Z" fill="white"/>
<path d="M124.065 264.22V225.808L108.065 239.076V247.404L124.065 264.22Z" fill="white"/>
<path d="M325.491 339.414C323.34 341.812 320.958 343.992 318.38 345.922L291.19 483.707C290.259 487.78 287.761 491.323 284.236 493.568C280.712 495.812 276.445 496.578 272.36 495.699C268.275 494.82 264.701 492.367 262.411 488.871C260.122 485.376 259.301 481.119 260.128 477.023L275.282 379.07C275.471 377.838 275.37 376.579 274.986 375.393C274.603 374.207 273.948 373.127 273.074 372.239C272.199 371.35 271.13 370.678 269.95 370.276C268.77 369.874 267.513 369.753 266.278 369.922L265.382 370.047C216.69 376.748 167.31 376.748 118.618 370.047L117.714 369.922C116.479 369.752 115.221 369.872 114.041 370.274C112.861 370.676 111.791 371.348 110.916 372.237C110.042 373.125 109.387 374.206 109.005 375.392C108.622 376.579 108.521 377.838 108.712 379.07L123.915 477.305C124.351 479.571 124.28 481.905 123.706 484.14C123.132 486.375 122.069 488.455 120.594 490.231C118.714 492.5 116.24 494.203 113.45 495.152C110.659 496.1 107.66 496.257 104.786 495.604C101.912 494.95 99.2748 493.513 97.1682 491.452C95.0615 489.39 93.5676 486.785 92.8523 483.926L65.6126 345.924C63.0357 343.993 60.6549 341.814 58.5046 339.418L49.4301 329.215C47.9031 333.297 47.5911 337.733 48.5319 341.988L77.2018 487.246C79.0461 495.367 83.9943 502.443 90.9883 506.963C97.9824 511.483 106.467 513.087 114.628 511.432C122.79 509.777 129.98 504.995 134.661 498.108C139.342 491.221 141.143 482.776 139.678 474.578L126.153 387.148C169.894 392.383 214.102 392.383 257.843 387.148L244.364 474.297C242.837 482.517 244.599 491.008 249.272 497.941C253.944 504.874 261.153 509.694 269.345 511.364C277.538 513.033 286.058 511.418 293.071 506.866C300.083 502.314 305.028 495.19 306.839 487.027L335.417 342.207C336.388 337.886 336.09 333.376 334.558 329.22L325.491 339.414ZM191.997 128C204.655 128 217.029 124.246 227.553 117.214C238.078 110.182 246.281 100.186 251.125 88.4918C255.969 76.7973 257.237 63.929 254.767 51.5143C252.298 39.0995 246.202 27.6958 237.252 18.7452C228.301 9.79463 216.897 3.69922 204.483 1.22977C192.068 -1.23968 179.2 0.02773 167.505 4.87174C155.811 9.71575 145.815 17.9188 138.783 28.4435C131.75 38.9683 127.997 51.342 127.997 64C128.016 80.9679 134.765 97.2353 146.763 109.233C158.762 121.232 175.029 127.981 191.997 128ZM191.997 16C201.49 16 210.771 18.8152 218.664 24.0895C226.558 29.3638 232.71 36.8604 236.343 45.6312C239.976 54.4021 240.927 64.0533 239.075 73.3644C237.222 82.6755 232.651 91.2282 225.938 97.9412C219.225 104.654 210.672 109.226 201.361 111.078C192.05 112.93 182.399 111.979 173.628 108.346C164.857 104.713 157.361 98.561 152.086 90.6674C146.812 82.7738 143.997 73.4935 143.997 64C144.011 51.274 149.073 39.0733 158.071 30.0746C167.07 21.076 179.271 16.0143 191.997 16Z" fill="white"/>
</svg>
